<?xml version="1.0" standalone="no"?>
<!DOCTYPE svg PUBLIC "-//W3C//DTD SVG 20010904//EN"
 "http://www.w3.org/TR/2001/REC-SVG-20010904/DTD/svg10.dtd">
<svg version="1.0" xmlns="http://www.w3.org/2000/svg"
 width="1024.000000pt" height="1024.000000pt" viewBox="0 0 1024.000000 1024.000000"
 preserveAspectRatio="xMidYMid meet">
<metadata>
Created by potrace 1.11, written by Peter Selinger 2001-2013
</metadata>
<g transform="translate(0.000000,1024.000000) scale(0.100000,-0.100000)"
fill="#000000" stroke="none">
<path d="M2440 5260 l0 -3570 220 0 220 0 1 1263 0 1262 79 69 c43 38 106 94
139 125 33 31 92 85 132 121 39 36 83 76 98 89 14 13 53 49 87 80 33 31 100
92 149 136 48 44 100 91 115 105 15 14 67 61 115 105 49 44 93 85 99 90 6 6
85 78 176 160 90 83 171 157 180 165 9 8 38 35 64 58 l47 44 20 -25 c21 -28
128 -157 162 -197 12 -14 89 -106 172 -205 82 -99 160 -191 172 -205 12 -14
49 -59 83 -100 34 -41 77 -93 96 -115 18 -22 153 -184 300 -360 146 -176 283
-340 303 -364 64 -77 113 -135 135 -161 11 -14 52 -63 91 -110 38 -47 75 -91
82 -98 7 -7 29 -34 50 -60 21 -26 40 -49 43 -52 9 -9 64 -75 100 -120 19 -24
40 -48 45 -54 6 -6 30 -36 55 -66 25 -30 50 -61 57 -68 7 -7 29 -34 50 -60 21
-26 40 -49 43 -52 5 -5 134 -159 172 -205 37 -45 152 -182 177 -210 14 -17 43
-52 64 -77 21 -26 43 -53 50 -60 7 -7 30 -36 52 -63 21 -28 42 -52 45 -55 4
-4 78 -92 122 -145 52 -64 233 -281 238 -285 3 -3 60 -71 128 -152 l123 -148
270 0 c154 0 269 4 267 9 -1 5 -109 136 -238 292 -129 156 -315 380 -414 499
-225 271 -247 298 -267 321 -8 9 -62 75 -120 144 -57 70 -111 135 -119 145 -8
10 -31 37 -51 61 -112 135 -306 370 -338 408 -20 24 -48 58 -62 75 -26 30
-217 261 -249 300 -19 23 -73 88 -126 152 -23 27 -69 83 -103 124 -34 41 -77
93 -96 115 -18 22 -113 137 -211 255 -99 118 -220 264 -269 325 -50 60 -97
117 -105 126 -8 9 -22 25 -30 35 -25 32 -304 369 -310 374 -3 3 -44 52 -92
110 -47 58 -94 115 -104 127 -23 25 -34 40 -96 116 l-47 58 57 51 c31 29 74
68 96 88 21 19 48 44 60 55 13 11 67 61 121 110 54 50 106 97 115 105 14 13
136 123 229 208 14 13 66 61 116 105 49 45 101 93 116 107 15 14 64 59 110
100 46 41 90 82 99 90 9 8 56 51 105 95 49 44 96 87 105 96 8 8 64 60 124 115
61 54 117 106 126 114 88 80 206 188 220 200 9 8 59 53 110 100 51 47 101 92
110 100 9 8 59 53 110 100 51 47 105 96 119 109 39 35 200 182 231 211 47 43
202 184 220 200 14 12 110 99 214 195 12 11 64 58 116 105 51 47 105 96 120
110 14 14 45 42 68 63 l42 37 -286 0 -286 0 -112 -102 c-61 -57 -138 -128
-170 -158 -71 -66 -68 -63 -186 -170 -52 -47 -101 -92 -110 -100 -9 -8 -58
-53 -109 -100 -51 -47 -105 -96 -120 -110 -154 -141 -222 -204 -239 -218 -20
-18 -205 -187 -256 -235 -16 -15 -68 -62 -114 -105 -47 -42 -97 -88 -112 -102
-15 -14 -67 -62 -116 -106 -127 -117 -130 -119 -244 -224 -56 -52 -111 -102
-120 -110 -9 -8 -61 -55 -115 -105 -54 -49 -108 -99 -121 -110 -12 -11 -63
-58 -114 -105 -51 -47 -102 -93 -114 -103 -12 -10 -46 -42 -76 -70 -30 -29
-102 -95 -160 -147 -57 -52 -114 -104 -126 -115 -23 -22 -203 -187 -240 -220
-12 -11 -66 -60 -120 -110 -54 -49 -118 -108 -142 -130 -24 -22 -58 -53 -76
-70 -18 -16 -72 -66 -120 -110 -48 -44 -103 -93 -120 -110 -18 -16 -73 -67
-122 -111 -49 -45 -101 -92 -115 -105 -14 -13 -65 -60 -113 -104 -48 -44 -102
-93 -120 -110 -84 -77 -231 -212 -250 -228 -12 -10 -42 -39 -68 -63 l-48 -45
0 2055 0 2056 -220 0 -220 0 0 -3570z"/>
</g>
</svg>
